<svg width="63" height="63" viewBox="0 0 63 63" fill="none" xmlns="http://www.w3.org/2000/svg">
<path opacity="0.15" d="M10.9985 59.2463C10.9985 59.7684 12.7962 60.2692 15.996 60.6384C19.1959 61.0076 23.5358 61.215 28.061 61.215C32.5863 61.215 36.9262 61.0076 40.126 60.6384C43.3259 60.2692 45.1235 59.7684 45.1235 59.2463C45.1235 58.7241 43.3259 58.2234 40.126 57.8542C36.9262 57.4849 32.5863 57.2775 28.061 57.2775C23.5358 57.2775 19.1959 57.4849 15.996 57.8542C12.7962 58.2234 10.9985 58.7241 10.9985 59.2463Z" fill="#45413C"/>
<path d="M5.22363 21.4725H41.3174V50.3475H5.22363V21.4725Z" fill="#FFE500"/>
<path d="M37.38 21.4725H9.1875C8.14321 21.4725 7.14169 21.8873 6.40327 22.6258C5.66484 23.3642 5.25 24.3657 5.25 25.41V30.66C5.25 29.6157 5.66484 28.6142 6.40327 27.8758C7.14169 27.1373 8.14321 26.7225 9.1875 26.7225H37.4062C38.4505 26.7225 39.4521 27.1373 40.1905 27.8758C40.9289 28.6142 41.3437 29.6157 41.3437 30.66V25.41C41.3438 24.8907 41.2411 24.3765 41.0415 23.8971C40.842 23.4177 40.5496 22.9824 40.1812 22.6164C39.8128 22.2505 39.3756 21.961 38.8949 21.7647C38.4141 21.5683 37.8993 21.469 37.38 21.4725Z" fill="#FFF48C"/>
<path d="M5.22363 21.4725H41.3174V50.3475H5.22363V21.4725Z" stroke="#45413C" stroke-width="1.04167" stroke-linecap="round" stroke-linejoin="round"/>
<path d="M23.2706 1.785C19.5342 1.79541 15.9542 3.28611 13.3146 5.93063C10.675 8.57515 9.19096 12.1579 9.1875 15.8944V21.4725H15.0937V15.8944C15.0937 13.7188 15.958 11.6323 17.4964 10.0939C19.0348 8.5555 21.1213 7.69125 23.2969 7.69125C25.4725 7.69125 27.559 8.5555 29.0974 10.0939C30.6357 11.6323 31.5 13.7188 31.5 15.8944V21.4725H37.4062V15.8944C37.4062 14.0393 37.0404 12.2024 36.3297 10.4889C35.619 8.77534 34.5774 7.21877 33.2644 5.90825C31.9515 4.59773 30.393 3.55898 28.6781 2.85147C26.9632 2.14395 25.1257 1.78155 23.2706 1.785Z" fill="#DAEDF7"/>
<path d="M23.2706 1.785C19.5342 1.79541 15.9542 3.28611 13.3146 5.93063C10.675 8.57515 9.19096 12.1579 9.1875 15.8944V19.1756C9.1875 15.4336 10.674 11.8448 13.32 9.19879C15.9661 6.55277 19.5548 5.06625 23.2969 5.06625C27.0389 5.06625 30.6277 6.55277 33.2737 9.19879C35.9197 11.8448 37.4062 15.4336 37.4062 19.1756V15.8944C37.4062 14.0393 37.0404 12.2024 36.3297 10.4889C35.619 8.77534 34.5774 7.21877 33.2644 5.90825C31.9515 4.59772 30.393 3.55898 28.6781 2.85147C26.9632 2.14395 25.1257 1.78155 23.2706 1.785Z" fill="white"/>
<path d="M23.2706 1.785C19.5342 1.79541 15.9542 3.28611 13.3146 5.93063C10.675 8.57515 9.19096 12.1579 9.1875 15.8944V21.4725H15.0937V15.8944C15.0937 13.7188 15.958 11.6323 17.4964 10.0939C19.0348 8.5555 21.1213 7.69125 23.2969 7.69125C25.4725 7.69125 27.559 8.5555 29.0974 10.0939C30.6357 11.6323 31.5 13.7188 31.5 15.8944V21.4725H37.4062V15.8944C37.4063 14.0393 37.0404 12.2024 36.3297 10.4889C35.619 8.77534 34.5774 7.21877 33.2644 5.90825C31.9515 4.59773 30.393 3.55898 28.6781 2.85147C26.9632 2.14395 25.1257 1.78155 23.2706 1.785Z" stroke="#45413C" stroke-width="1.04167" stroke-linecap="round" stroke-linejoin="round"/>
<path d="M54.8888 31.5C53.2465 29.8621 51.0787 28.8568 48.7675 28.6612C46.4564 28.4656 44.1504 29.0924 42.2563 30.431C40.3622 31.7696 39.0015 33.734 38.4144 35.9779C37.8272 38.2217 38.0512 40.6008 39.0469 42.6956L26.565 55.125C26.4265 55.2627 26.3204 55.4296 26.2545 55.6136C26.1887 55.7975 26.1647 55.9938 26.1844 56.1881L26.4732 58.695C26.504 58.9921 26.6353 59.2697 26.8453 59.4821C27.0553 59.6945 27.3315 59.8289 27.6282 59.8631L30.135 60.1388C30.3315 60.1605 30.5303 60.1375 30.7167 60.0716C30.9031 60.0057 31.0721 59.8985 31.2113 59.7581L32.6944 58.275C32.8161 58.1524 32.9123 58.0069 32.9776 57.847C33.0429 57.6871 33.076 57.5159 33.075 57.3431V56.0306H34.3875C34.5603 56.0316 34.7315 55.9985 34.8914 55.9332C35.0513 55.8679 35.1968 55.7717 35.3194 55.65L36.4875 54.4819C36.6092 54.3593 36.7054 54.2138 36.7707 54.0539C36.836 53.894 36.8692 53.7228 36.8682 53.55V52.7756C36.8731 52.4294 37.0146 52.0992 37.2619 51.8569L38.8107 50.3081C38.9322 50.1841 39.0772 50.0855 39.2371 50.0179C39.3971 49.9503 39.5689 49.9151 39.7425 49.9144H40.5038C40.6765 49.9154 40.8477 49.8823 41.0077 49.817C41.1676 49.7517 41.313 49.6554 41.4357 49.5338L43.6932 47.2763C45.7776 48.2332 48.1307 48.4323 50.3462 47.8391C52.5618 47.2458 54.5006 45.8976 55.828 44.0271C57.1554 42.1567 57.7879 39.8814 57.6164 37.5943C57.445 35.3071 56.4802 33.1516 54.8888 31.5ZM50.2557 36.1463C50.0622 35.966 49.9071 35.7487 49.7995 35.5072C49.6919 35.2657 49.634 35.005 49.6294 34.7406C49.6247 34.4763 49.6733 34.2137 49.7723 33.9686C49.8713 33.7234 50.0187 33.5007 50.2057 33.3138C50.3926 33.1268 50.6153 32.9795 50.8605 32.8804C51.1056 32.7814 51.3682 32.7328 51.6325 32.7375C51.8969 32.7421 52.1576 32.8 52.3991 32.9076C52.6406 33.0152 52.8579 33.1703 53.0382 33.3638C53.3859 33.737 53.5752 34.2306 53.5662 34.7406C53.5572 35.2507 53.3506 35.7373 52.9899 36.098C52.6292 36.4587 52.1426 36.6654 51.6325 36.6744C51.1225 36.6834 50.6289 36.494 50.2557 36.1463Z" fill="#FFAA54"/>
<path d="M40.9632 35.6344C42.1997 34.4038 43.7399 33.5224 45.4273 33.0798C47.1148 32.6372 48.8893 32.6491 50.5707 33.1144C50.9445 32.8609 51.3945 32.7447 51.8442 32.7853C52.294 32.826 52.7159 33.0211 53.0382 33.3375C53.3541 33.6641 53.5447 34.0917 53.5763 34.545C54.0431 34.8713 54.4821 35.2356 54.8888 35.6344C56.2171 36.9741 57.1288 38.67 57.5138 40.5169C57.8298 39.0808 57.8196 37.5922 57.484 36.1606C57.1484 34.7291 56.496 33.391 55.5748 32.245C54.6535 31.099 53.4869 30.1742 52.1609 29.5388C50.8349 28.9034 49.3832 28.5736 47.9128 28.5736C46.4425 28.5736 44.9908 28.9034 43.6648 29.5388C42.3388 30.1742 41.1722 31.099 40.2509 32.245C39.3297 33.391 38.6772 34.7291 38.3417 36.1606C38.0061 37.5922 37.9959 39.0808 38.3119 40.5169C38.7106 38.6693 39.6307 36.9749 40.9632 35.6344ZM26.6438 59.2462L39.0469 46.83C38.5671 45.7996 38.2695 44.6939 38.1675 43.5619L26.565 55.125C26.4265 55.2627 26.3204 55.4296 26.2545 55.6135C26.1887 55.7974 26.1647 55.9937 26.1844 56.1881L26.4732 58.695C26.4836 58.89 26.5422 59.0794 26.6438 59.2462Z" fill="#FFCC99"/>
<path d="M26.5782 58.8525L38.6532 46.7906M54.8888 31.5C53.2465 29.8621 51.0787 28.8568 48.7675 28.6612C46.4564 28.4656 44.1504 29.0924 42.2563 30.431C40.3622 31.7696 39.0015 33.734 38.4144 35.9779C37.8272 38.2217 38.0512 40.6008 39.0469 42.6956L26.565 55.125C26.4265 55.2627 26.3204 55.4296 26.2545 55.6136C26.1887 55.7975 26.1647 55.9938 26.1844 56.1881L26.4732 58.695C26.504 58.9921 26.6353 59.2697 26.8453 59.4821C27.0553 59.6945 27.3315 59.8289 27.6282 59.8631L30.135 60.1388C30.3315 60.1605 30.5303 60.1375 30.7167 60.0716C30.9031 60.0057 31.0721 59.8985 31.2113 59.7581L32.6944 58.275C32.8161 58.1524 32.9123 58.0069 32.9776 57.847C33.0429 57.6871 33.076 57.5159 33.075 57.3431V56.0306H34.3875C34.5603 56.0316 34.7315 55.9985 34.8914 55.9332C35.0513 55.8679 35.1968 55.7717 35.3194 55.65L36.4875 54.4819C36.6092 54.3593 36.7054 54.2138 36.7707 54.0539C36.836 53.894 36.8692 53.7228 36.8682 53.55V52.7756C36.8731 52.4294 37.0146 52.0992 37.2619 51.8569L38.8107 50.3081C38.9322 50.1841 39.0772 50.0855 39.2371 50.0179C39.3971 49.9503 39.5689 49.9151 39.7425 49.9144H40.5038C40.6765 49.9154 40.8477 49.8823 41.0077 49.817C41.1676 49.7517 41.313 49.6554 41.4357 49.5338L43.6932 47.2763C45.7776 48.2332 48.1307 48.4323 50.3462 47.8391C52.5618 47.2458 54.5006 45.8976 55.828 44.0271C57.1554 42.1567 57.7879 39.8814 57.6164 37.5943C57.445 35.3071 56.4802 33.1516 54.8888 31.5ZM50.2557 36.1463C50.0622 35.966 49.9071 35.7487 49.7995 35.5072C49.6919 35.2657 49.634 35.005 49.6294 34.7406C49.6247 34.4763 49.6733 34.2137 49.7723 33.9686C49.8713 33.7234 50.0187 33.5007 50.2057 33.3138C50.3926 33.1268 50.6153 32.9795 50.8605 32.8804C51.1056 32.7814 51.3682 32.7328 51.6325 32.7375C51.8969 32.7421 52.1576 32.8 52.3991 32.9076C52.6406 33.0152 52.8579 33.1703 53.0382 33.3638C53.3859 33.737 53.5752 34.2306 53.5662 34.7406C53.5572 35.2507 53.3506 35.7373 52.9899 36.098C52.6292 36.4587 52.1426 36.6654 51.6325 36.6744C51.1225 36.6834 50.6289 36.494 50.2557 36.1463Z" stroke="#45413C" stroke-width="1.04167" stroke-linecap="round" stroke-linejoin="round"/>
</svg>
