<svg width="70" height="70" viewBox="0 0 70 70" fill="none" xmlns="http://www.w3.org/2000/svg">
<path opacity="0.15" d="M13.0957 65.6833C13.0957 66.4414 15.4035 67.1684 19.5113 67.7045C23.6191 68.2405 29.1905 68.5417 34.9999 68.5417C40.8092 68.5417 46.3806 68.2405 50.4885 67.7045C54.5963 67.1684 56.904 66.4414 56.904 65.6833C56.904 64.9253 54.5963 64.1982 50.4885 63.6622C46.3806 63.1262 40.8092 62.825 34.9999 62.825C29.1905 62.825 23.6191 63.1262 19.5113 63.6622C15.4035 64.1982 13.0957 64.9253 13.0957 65.6833Z" fill="#45413C"/>
<path d="M35 30.3333V64.8958C36.1767 64.8935 37.3431 64.676 38.4417 64.2542L60.8854 55.5042C61.9584 55.0872 62.8805 54.3559 63.531 53.4062C64.1815 52.4564 64.5301 51.3324 64.5312 50.1813V22.8229C64.5282 21.5723 64.113 20.3575 63.35 19.3667L35 30.3333ZM6.65 19.3667C5.88696 20.3575 5.47179 21.5723 5.46875 22.8229V50.2396C5.46986 51.3908 5.81848 52.5148 6.46899 53.4645C7.11951 54.4143 8.0416 55.1455 9.11458 55.5625L31.5583 64.3125C32.6606 64.7145 33.8269 64.9121 35 64.8958V30.3333L6.65 19.3667Z" fill="#F7FCFF"/>
<path d="M35 30.3333V64.8958C36.1767 64.8935 37.3431 64.676 38.4417 64.2542L60.8854 55.5042C61.9584 55.0872 62.8805 54.3559 63.531 53.4062C64.1815 52.4564 64.5301 51.3324 64.5312 50.1813V22.8229C64.5282 21.5723 64.113 20.3575 63.35 19.3667L35 30.3333ZM6.65 19.3667C5.88696 20.3575 5.47179 21.5723 5.46875 22.8229V50.2396C5.46986 51.3908 5.81848 52.5148 6.46899 53.4645C7.11951 54.4143 8.0416 55.1455 9.11458 55.5625L31.5583 64.3125C32.6606 64.7145 33.8269 64.9121 35 64.8958V30.3333L6.65 19.3667Z" fill="white"/>
<path d="M60.8854 50.1667L38.4417 58.9167C37.3394 59.3186 36.1731 59.5163 35 59.5V64.8958C36.1767 64.8935 37.3431 64.676 38.4417 64.2542L60.8854 55.5042C61.9584 55.0872 62.8805 54.3559 63.531 53.4062C64.1815 52.4564 64.5301 51.3324 64.5312 50.1812V44.8292C64.5291 45.9819 64.1802 47.1073 63.53 48.0592C62.8799 49.0111 61.9584 49.7454 60.8854 50.1667ZM9.11458 50.1667C8.0416 49.7454 7.12014 49.0111 6.46995 48.0592C5.81977 47.1073 5.47092 45.9819 5.46875 44.8292V50.2396C5.46986 51.3907 5.81848 52.5148 6.46899 53.4645C7.11951 54.4143 8.0416 55.1455 9.11458 55.5625L31.5583 64.3125C32.6606 64.7145 33.8269 64.9121 35 64.8958V59.5C33.8233 59.4976 32.6569 59.2802 31.5583 58.8583L9.11458 50.1667Z" fill="#F7FCFF"/>
<path d="M35 30.3333V64.8958M35 30.3333L63.35 19.3667C64.113 20.3575 64.5282 21.5723 64.5313 22.8229V50.1813C64.5301 51.3324 64.1815 52.4564 63.531 53.4062C62.8805 54.3559 61.9584 55.0872 60.8854 55.5042L38.4417 64.2542C37.3431 64.676 36.1767 64.8935 35 64.8958M35 30.3333L6.65 19.3667C5.88696 20.3575 5.47179 21.5723 5.46875 22.8229V50.2396C5.46986 51.3908 5.81848 52.5148 6.46899 53.4645C7.11951 54.4143 8.0416 55.1455 9.11458 55.5625L31.5583 64.3125C32.6606 64.7145 33.8269 64.9121 35 64.8958" stroke="#45413C" stroke-width="1.04167" stroke-linecap="round" stroke-linejoin="round"/>
<path d="M34.9999 30.3333L63.3499 19.3667C62.7112 18.5341 61.8598 17.8892 60.8853 17.5L38.4416 8.74999C36.2279 7.88892 33.7719 7.88892 31.5582 8.74999L9.11449 17.5C8.13829 17.8933 7.28668 18.5433 6.6499 19.3812L34.9999 30.3333Z" fill="white"/>
<path d="M60.8853 17.5L59.0187 16.7854L37.9166 24.9229C36.013 25.6664 33.8993 25.6664 31.9957 24.9229L10.9812 16.7708L9.11449 17.5C8.13829 17.8933 7.28668 18.5433 6.6499 19.3813L34.9999 30.3333L63.3499 19.3667C62.7112 18.5341 61.8598 17.8892 60.8853 17.5Z" fill="#F7FCFF"/>
<path d="M34.9999 30.3333L63.3499 19.3667C62.7112 18.5341 61.8598 17.8892 60.8853 17.5L38.4416 8.74999C36.2279 7.88892 33.7719 7.88892 31.5582 8.74999L9.11449 17.5C8.13829 17.8933 7.28668 18.5433 6.6499 19.3812L34.9999 30.3333Z" stroke="#45413C" stroke-width="1.04167" stroke-linecap="round" stroke-linejoin="round"/>
<path d="M28.3354 18.7979C28.3354 19.556 29.0376 20.283 30.2875 20.8191C31.5373 21.3551 33.2325 21.6562 35 21.6562C36.7676 21.6562 38.4628 21.3551 39.7126 20.8191C40.9625 20.283 41.6646 19.556 41.6646 18.7979C41.6646 18.0398 40.9625 17.3128 39.7126 16.7768C38.4628 16.2407 36.7676 15.9396 35 15.9396C33.2325 15.9396 31.5373 16.2407 30.2875 16.7768C29.0376 17.3128 28.3354 18.0398 28.3354 18.7979Z" fill="#FF6242" stroke="#45413C" stroke-width="1.04167" stroke-linecap="round" stroke-linejoin="round"/>
<path d="M16.8729 35.1167C17.2084 37.4646 16.4354 39.4917 15.1375 39.7104C13.8396 39.9292 12.4979 38.15 12.2209 35.8021C11.9438 33.4542 12.6584 31.4271 13.9563 31.2229C15.2542 31.0188 16.5375 32.7833 16.8729 35.1167ZM55.9271 30.3333C55.5917 32.6667 56.3646 34.7083 57.6771 34.9125C58.9896 35.1167 60.3021 33.3521 60.5938 31.0042C60.8854 28.6563 60.1563 26.6292 58.8584 26.425C57.5604 26.2208 56.2625 27.9854 55.9271 30.3333ZM39.8417 53.1854C39.5063 55.5333 40.2792 57.5604 41.5917 57.7792C42.9042 57.9979 44.2167 56.2188 44.5084 53.8708C44.8 51.5229 44.0709 49.4958 42.7729 49.2917C41.475 49.0875 40.1771 50.8521 39.8417 53.1854ZM48.3 41.825C47.9646 44.1583 48.7521 46.2 50.05 46.4042C51.3479 46.6083 52.675 44.8438 52.9667 42.5104C53.2584 40.1771 52.5146 38.1354 51.2167 37.9167C49.9188 37.6979 48.65 39.4771 48.3 41.825ZM25.5063 48.4896C25.8417 50.8375 25.0688 52.8646 23.7563 53.0688C22.4438 53.2729 21.1313 51.5083 20.8396 49.175C20.5479 46.8417 21.2771 44.8 22.575 44.5813C23.8729 44.3625 25.1709 46.1417 25.5063 48.4896Z" fill="#656769" stroke="#45413C" stroke-width="1.04167" stroke-linecap="round" stroke-linejoin="round"/>
</svg>
