<svg width="68" height="60" viewBox="0 0 68 60" fill="none" xmlns="http://www.w3.org/2000/svg">
<path d="M67.4555 0.0680523L-0.0432487 59.4905L-0.0389062 30.1196L0.189398 0.0781883L67.4555 0.0680523Z" fill="#FF6C6C"/>
<path d="M11.4219 22.7275L17.8014 30.1298L16.3167 31.4093L13.6022 28.2597L10.4314 30.9924L13.1459 34.1421L11.6612 35.4217L5.28163 28.0194L6.76633 26.7399L9.38943 29.7835L12.5603 27.0507L9.93721 24.0071L11.4219 22.7275ZM22.7628 25.9833C22.0699 26.5804 21.2935 26.9662 20.4334 27.1406C19.5734 27.3151 18.7269 27.2622 17.894 26.982C17.055 26.6947 16.3218 26.187 15.6942 25.4588C15.0727 24.7376 14.6848 23.9445 14.5306 23.0793C14.3703 22.2071 14.4399 21.3586 14.7394 20.5337C15.0388 19.7089 15.535 18.9979 16.2279 18.4008C16.9278 17.7975 17.7042 17.4118 18.5572 17.2434C19.4172 17.069 20.2632 17.1285 21.0951 17.4219C21.928 17.7021 22.6552 18.2027 23.2767 18.9239C23.9043 19.6521 24.2982 20.4523 24.4585 21.3245C24.6198 22.1835 24.5507 23.0255 24.2512 23.8503C23.9518 24.6752 23.4556 25.3862 22.7628 25.9833ZM21.6203 24.6577C22.0657 24.2738 22.3728 23.8367 22.5415 23.3462C22.7042 22.8487 22.7195 22.3304 22.5874 21.7912C22.4554 21.2519 22.1761 20.7349 21.7496 20.24C21.3231 19.7451 20.8559 19.3961 20.3482 19.1929C19.8344 18.9828 19.3225 18.9249 18.8125 19.0194C18.3026 19.1139 17.8249 19.3531 17.3795 19.737C16.9341 20.1209 16.6234 20.5611 16.4476 21.0576C16.2789 21.548 16.2605 22.0628 16.3926 22.6021C16.5185 23.1342 16.7948 23.6477 17.2213 24.1426C17.6478 24.6375 18.118 24.9901 18.6318 25.2003C19.1456 25.4105 19.6606 25.4719 20.1766 25.3844C20.6937 25.2838 21.1749 25.0416 21.6203 24.6577ZM26.2472 9.9506L27.2799 11.149L25.3074 12.849L30.6542 19.0529L29.1695 20.3324L23.8227 14.1285L21.8502 15.8285L20.8174 14.6301L26.2472 9.9506ZM36.3297 14.2908C35.8136 14.7356 35.2709 15.0494 34.7014 15.2321C34.139 15.4088 33.5944 15.4346 33.0677 15.3094C32.5409 15.1843 32.079 14.8986 31.682 14.4522L33.2727 13.0812C33.556 13.367 33.8692 13.5159 34.2124 13.5282C34.5627 13.5343 34.9075 13.3911 35.2469 13.0987C35.5933 12.8001 35.7954 12.4842 35.8532 12.151C35.905 11.8107 35.815 11.5062 35.5835 11.2376C35.3946 11.0184 35.1721 10.896 34.9159 10.8704C34.6597 10.8448 34.3956 10.8814 34.1235 10.9803C33.8524 11.0661 33.4975 11.2118 33.0587 11.4175C32.4561 11.6904 31.9449 11.8907 31.5251 12.0184C31.1063 12.1329 30.6685 12.1468 30.2117 12.0599C29.7559 11.9599 29.3269 11.6766 28.9247 11.21C28.547 10.7717 28.3275 10.2954 28.2664 9.78132C28.2053 9.26721 28.2996 8.75471 28.5492 8.24382C28.7928 7.72585 29.1691 7.24752 29.6782 6.80881C30.4417 6.15075 31.2218 5.80495 32.0185 5.77142C32.8161 5.72472 33.526 6.01234 34.1482 6.63427L32.5151 8.04178C32.2816 7.79945 31.9922 7.68533 31.6471 7.69942C31.3029 7.70035 30.9646 7.844 30.6323 8.13038C30.3425 8.3802 30.1731 8.65551 30.1244 8.95631C30.0826 9.25101 30.1836 9.53977 30.4274 9.82256C30.598 10.0205 30.8048 10.1318 31.0478 10.1565C31.2918 10.168 31.5458 10.1339 31.8098 10.0542C32.0748 9.96137 32.4298 9.81564 32.8747 9.61704C33.4773 9.3441 33.9915 9.14733 34.4174 9.02673C34.8433 8.90612 35.2877 8.89277 35.7505 8.98668C36.2134 9.0806 36.6429 9.35733 37.039 9.81687C37.3802 10.2128 37.5945 10.6688 37.682 11.1848C37.7694 11.7009 37.7035 12.2321 37.4843 12.7783C37.259 13.3175 36.8741 13.8217 36.3297 14.2908Z" fill="white"/>
</svg>
